<svg xmlns="http://www.w3.org/2000/svg" viewBox="0 0 36 36">
  <rect width="36" height="36" rx="7" fill="#fffdf7"/>
  <circle cx="4.8" cy="4.8" r="3.35" fill="#167c7a"/>
  <circle cx="4.8" cy="11.4" r="3.35" fill="#167c7a"/>
  <circle cx="4.8" cy="18" r="3.35" fill="#167c7a"/>
  <circle cx="4.8" cy="24.6" r="3.35" fill="#167c7a"/>
  <circle cx="4.8" cy="31.2" r="3.35" fill="#167c7a"/>
  <circle cx="9.2" cy="11.4" r="3.35" fill="#f0b429"/>
  <circle cx="13.6" cy="18" r="3.35" fill="#f0b429"/>
  <circle cx="18" cy="24.6" r="3.35" fill="#d95f3d"/>
  <circle cx="22.4" cy="18" r="3.35" fill="#f0b429"/>
  <circle cx="26.8" cy="11.4" r="3.35" fill="#f0b429"/>
  <circle cx="31.2" cy="4.8" r="3.35" fill="#167c7a"/>
  <circle cx="31.2" cy="11.4" r="3.35" fill="#167c7a"/>
  <circle cx="31.2" cy="18" r="3.35" fill="#167c7a"/>
  <circle cx="31.2" cy="24.6" r="3.35" fill="#167c7a"/>
  <circle cx="31.2" cy="31.2" r="3.35" fill="#167c7a"/>
  <circle cx="4.8" cy="4.8" r="1.05" fill="#fffdf7" opacity="0.75"/>
  <circle cx="4.8" cy="11.4" r="1.05" fill="#fffdf7" opacity="0.75"/>
  <circle cx="4.8" cy="18" r="1.05" fill="#fffdf7" opacity="0.75"/>
  <circle cx="4.8" cy="24.6" r="1.05" fill="#fffdf7" opacity="0.75"/>
  <circle cx="4.8" cy="31.2" r="1.05" fill="#fffdf7" opacity="0.75"/>
  <circle cx="9.2" cy="11.4" r="1.05" fill="#fffdf7" opacity="0.75"/>
  <circle cx="13.6" cy="18" r="1.05" fill="#fffdf7" opacity="0.75"/>
  <circle cx="18" cy="24.6" r="1.05" fill="#fffdf7" opacity="0.75"/>
  <circle cx="22.4" cy="18" r="1.05" fill="#fffdf7" opacity="0.75"/>
  <circle cx="26.8" cy="11.4" r="1.05" fill="#fffdf7" opacity="0.75"/>
  <circle cx="31.2" cy="4.8" r="1.05" fill="#fffdf7" opacity="0.75"/>
  <circle cx="31.2" cy="11.4" r="1.05" fill="#fffdf7" opacity="0.75"/>
  <circle cx="31.2" cy="18" r="1.05" fill="#fffdf7" opacity="0.75"/>
  <circle cx="31.2" cy="24.6" r="1.05" fill="#fffdf7" opacity="0.75"/>
  <circle cx="31.2" cy="31.2" r="1.05" fill="#fffdf7" opacity="0.75"/>
</svg>
